<svg width="16" height="20" viewBox="0 0 16 20" fill="none" xmlns="http://www.w3.org/2000/svg">
<path d="M16 6.94C15.9896 6.84813 15.9695 6.75763 15.94 6.67V6.58C15.8919 6.47718 15.8278 6.38267 15.75 6.3L9.75 0.3C9.66734 0.222216 9.57282 0.158081 9.47 0.11H9.37C9.27276 0.058003 9.16826 0.020922 9.06 0H3C2.20435 0 1.44129 0.316071 0.87868 0.87868C0.316071 1.44129 0 2.20435 0 3V17C0 17.7956 0.316071 18.5587 0.87868 19.1213C1.44129 19.6839 2.20435 20 3 20H13C13.7956 20 14.5587 19.6839 15.1213 19.1213C15.6839 18.5587 16 17.7956 16 17V7V6.94ZM10 3.41L12.59 6H11C10.7348 6 10.4804 5.89464 10.2929 5.70711C10.1054 5.51957 10 5.26522 10 5V3.41ZM14 17C14 17.2652 13.8946 17.5196 13.7071 17.7071C13.5196 17.8946 13.2652 18 13 18H3C2.73478 18 2.48043 17.8946 2.29289 17.7071C2.10536 17.5196 2 17.2652 2 17V3C2 2.73478 2.10536 2.48043 2.29289 2.29289C2.48043 2.10536 2.73478 2 3 2H8V5C8 5.79565 8.31607 6.55871 8.87868 7.12132C9.44129 7.68393 10.2044 8 11 8H14V17ZM8 9.34C7.38003 9.00234 6.65873 8.90072 5.96961 9.05394C5.28048 9.20717 4.6702 9.60486 4.25172 10.1734C3.83324 10.7419 3.6349 11.4429 3.69342 12.1464C3.75194 12.8499 4.06334 13.5084 4.57 14L7.29 16.72C7.38296 16.8137 7.49356 16.8881 7.61542 16.9389C7.73728 16.9897 7.86799 17.0158 8 17.0158C8.13201 17.0158 8.26272 16.9897 8.38458 16.9389C8.50644 16.8881 8.61704 16.8137 8.71 16.72L11.43 14C11.9367 13.5084 12.2481 12.8499 12.3066 12.1464C12.3651 11.4429 12.1668 10.7419 11.7483 10.1734C11.3298 9.60486 10.7195 9.20717 10.0304 9.05394C9.34127 8.90072 8.61997 9.00234 8 9.34ZM10 11.27C10.1722 11.4425 10.2689 11.6763 10.2689 11.92C10.2689 12.1637 10.1722 12.3975 10 12.57L8 14.57L6 12.57C5.8278 12.3975 5.73108 12.1637 5.73108 11.92C5.73108 11.6763 5.8278 11.4425 6 11.27C6.17249 11.0978 6.40626 11.0011 6.65 11.0011C6.89374 11.0011 7.12751 11.0978 7.3 11.27C7.39296 11.3637 7.50356 11.4381 7.62542 11.4889C7.74728 11.5397 7.87799 11.5658 8.01 11.5658C8.14201 11.5658 8.27272 11.5397 8.39458 11.4889C8.51644 11.4381 8.62704 11.3637 8.72 11.27C8.89161 11.1038 9.12112 11.0109 9.36 11.0109C9.59888 11.0109 9.82839 11.1038 10 11.27Z" fill="#FAF3DD"/>
</svg>
